<svg xmlns="http://www.w3.org/2000/svg" xmlns:xlink="http://www.w3.org/1999/xlink" width="500" zoomAndPan="magnify" viewBox="0 0 375 374.999991" height="500" preserveAspectRatio="xMidYMid meet" version="1.0"><defs><g/><clipPath id="fed7d222d8"><path d="M 35.433594 113 L 72 113 L 72 150 L 35.433594 150 Z M 35.433594 113 " clip-rule="nonzero"/></clipPath><clipPath id="7877d98abc"><path d="M 41 185 L 141 185 L 141 229.699219 L 41 229.699219 Z M 41 185 " clip-rule="nonzero"/></clipPath></defs><rect x="-37.5" width="450" fill="#ffffff" y="-37.499999" height="449.999989" fill-opacity="1"/><rect x="-37.5" width="450" fill="#ffffff" y="-37.499999" height="449.999989" fill-opacity="1"/><g clip-path="url(#fed7d222d8)"><path fill="#242424" d="M 69.957031 122.367188 C 70.476562 123.183594 70.914062 124.027344 71.265625 124.894531 C 71.304688 124.976562 71.28125 125.039062 71.199219 125.078125 C 61.101562 130.046875 53.066406 138.933594 48.351562 149.050781 C 48.300781 149.160156 48.214844 149.195312 48.101562 149.15625 C 40.851562 146.542969 35.71875 140.027344 35.589844 132.292969 C 35.429688 122.75 42.738281 114.394531 52.238281 113.460938 C 59.523438 112.746094 66.140625 116.339844 69.957031 122.367188 Z M 69.957031 122.367188 " fill-opacity="1" fill-rule="nonzero"/></g><path fill="#242424" d="M 143.953125 122.613281 C 146.605469 126.933594 147.199219 132.371094 145.722656 137.164062 C 143.996094 142.769531 139.585938 147.058594 134.074219 149.0625 C 133.996094 149.089844 133.914062 149.089844 133.835938 149.058594 C 133.757812 149.023438 133.703125 148.96875 133.667969 148.894531 C 128.859375 138.773438 120.949219 130.195312 110.789062 125.179688 C 110.71875 125.144531 110.699219 125.09375 110.730469 125.019531 C 113.535156 118.714844 119.078125 114.207031 125.992188 113.484375 C 127.386719 113.335938 128.546875 113.316406 129.476562 113.425781 C 135.820312 114.164062 140.644531 117.226562 143.953125 122.613281 Z M 143.953125 122.613281 " fill-opacity="1" fill-rule="nonzero"/><path fill="#242424" d="M 54.261719 176.804688 C 54.566406 169.382812 61.285156 160.953125 68.578125 158.984375 C 69.644531 158.695312 71.402344 158.601562 72.488281 158.917969 C 76.070312 159.964844 77.910156 163.003906 77.503906 166.617188 C 77.253906 168.816406 76.371094 170.394531 75.097656 172.480469 C 74.097656 174.117188 73.609375 175.242188 73.421875 176.964844 C 73.328125 177.828125 73.277344 178.261719 73.277344 178.269531 C 72.742188 181.40625 70.984375 183.574219 68.011719 184.773438 C 63.085938 186.761719 55.972656 185 54.546875 179.195312 C 54.324219 178.304688 54.230469 177.507812 54.261719 176.804688 Z M 54.261719 176.804688 " fill-opacity="1" fill-rule="nonzero"/><path fill="#242424" d="M 124.765625 168.015625 C 126.851562 171.28125 128.199219 174.695312 127.734375 178.542969 C 127.664062 179.125 127.46875 179.753906 127.144531 180.433594 C 125.953125 182.96875 123.667969 184.582031 120.917969 185.234375 C 115.84375 186.4375 109.617188 184.300781 108.640625 178.507812 C 108.457031 177.378906 108.433594 176.082031 107.992188 174.828125 C 107.429688 173.226562 106 171.367188 105.375 170.097656 C 103.300781 165.855469 104.242188 160.457031 109.1875 158.972656 C 110.191406 158.671875 111.964844 158.632812 113.019531 158.894531 C 118 160.125 122.058594 163.773438 124.765625 168.015625 Z M 124.765625 168.015625 " fill-opacity="1" fill-rule="nonzero"/><path fill="#242424" d="M 93.816406 178.914062 C 92.226562 179.519531 91.097656 179.789062 89.402344 179.363281 C 87.058594 178.773438 83.464844 176.929688 82.882812 174.308594 C 82.285156 171.617188 84.640625 170.382812 86.960938 169.941406 C 89.117188 169.53125 91.378906 169.457031 93.738281 169.71875 C 95.425781 169.902344 97.953125 170.515625 98.863281 172.078125 C 100.714844 175.25 96.242188 177.988281 93.816406 178.914062 Z M 93.816406 178.914062 " fill-opacity="1" fill-rule="nonzero"/><g clip-path="url(#7877d98abc)"><path fill="#242424" d="M 104.019531 212.542969 C 104.097656 212.507812 104.140625 212.453125 104.144531 212.367188 C 104.152344 212.285156 104.121094 212.222656 104.050781 212.179688 C 94.175781 205.957031 82.1875 205.234375 71.597656 210.140625 C 71.445312 210.210938 71.421875 210.3125 71.527344 210.441406 C 72.085938 211.121094 72.789062 211.695312 73.640625 212.167969 C 75.414062 213.148438 77.242188 213.992188 78.742188 215.484375 C 80.527344 217.257812 81.558594 219.328125 81.515625 221.832031 C 81.453125 225.398438 79.140625 228.300781 75.859375 229.648438 C 75.414062 229.832031 74.917969 229.925781 74.402344 229.929688 C 65.894531 229.949219 57.382812 229.953125 48.875 229.941406 C 48.796875 229.9375 48.734375 229.910156 48.683594 229.855469 C 44.996094 225.707031 42.738281 220.882812 41.910156 215.378906 C 41.578125 213.167969 41.449219 211.160156 41.527344 209.363281 C 41.890625 201.007812 44.722656 193.074219 49.394531 186.117188 C 49.441406 186.042969 49.5 186.039062 49.558594 186.105469 C 51.429688 188.15625 53.480469 190.042969 55.714844 191.765625 C 63.519531 197.785156 72.324219 201.472656 82.132812 202.824219 C 82.570312 202.886719 83.003906 202.957031 83.4375 203.042969 C 83.800781 203.117188 84.234375 203.15625 84.75 203.171875 C 85.539062 203.191406 86.289062 203.402344 87.03125 203.410156 C 89.484375 203.433594 91.941406 203.429688 94.394531 203.40625 C 95.085938 203.398438 95.875 203.226562 96.644531 203.183594 C 97.085938 203.160156 97.386719 203.136719 97.546875 203.121094 C 110.808594 201.644531 123.558594 195.988281 132.570312 185.988281 C 132.621094 185.929688 132.671875 185.933594 132.714844 185.996094 C 137.289062 192.601562 139.863281 199.832031 140.433594 207.695312 C 140.625 210.332031 140.453125 213.121094 139.921875 216.0625 C 138.992188 221.203125 136.824219 225.761719 133.410156 229.742188 C 133.292969 229.878906 133.144531 229.945312 132.964844 229.945312 C 123.398438 229.9375 113.78125 229.941406 104.117188 229.949219 C 103.554688 229.949219 103.054688 229.863281 102.613281 229.695312 C 98.011719 227.910156 95.574219 223.125 97.492188 218.421875 C 98.597656 215.726562 101.394531 213.597656 104.019531 212.542969 Z M 104.019531 212.542969 " fill-opacity="1" fill-rule="nonzero"/></g><g fill="#242424" fill-opacity="1"><g transform="translate(148.57692, 180.434064)"><g><path d="M 5.65625 -41.96875 C 5.65625 -43.40625 6.160156 -44.628906 7.171875 -45.640625 C 8.179688 -46.648438 9.40625 -47.15625 10.84375 -47.15625 L 24.921875 -47.15625 C 27.753906 -47.15625 30.28125 -46.757812 32.5 -45.96875 C 34.726562 -45.1875 36.617188 -44.078125 38.171875 -42.640625 C 39.722656 -41.210938 40.910156 -39.5 41.734375 -37.5 C 42.566406 -35.5 42.984375 -33.285156 42.984375 -30.859375 L 42.984375 -30.71875 C 42.984375 -27.976562 42.488281 -25.578125 41.5 -23.515625 C 40.507812 -21.453125 39.148438 -19.722656 37.421875 -18.328125 C 35.691406 -16.929688 33.671875 -15.882812 31.359375 -15.1875 C 29.046875 -14.5 26.566406 -14.15625 23.921875 -14.15625 L 16.03125 -14.15625 L 16.03125 -4.78125 C 16.03125 -3.34375 15.523438 -2.117188 14.515625 -1.109375 C 13.503906 -0.0976562 12.28125 0.40625 10.84375 0.40625 C 9.40625 0.40625 8.179688 -0.0976562 7.171875 -1.109375 C 6.160156 -2.117188 5.65625 -3.34375 5.65625 -4.78125 Z M 16.03125 -23.375 L 24.25 -23.375 C 26.851562 -23.375 28.875 -24.054688 30.3125 -25.421875 C 31.75 -26.796875 32.46875 -28.492188 32.46875 -30.515625 L 32.46875 -30.65625 C 32.46875 -32.988281 31.710938 -34.757812 30.203125 -35.96875 C 28.703125 -37.1875 26.648438 -37.796875 24.046875 -37.796875 L 16.03125 -37.796875 Z M 16.03125 -23.375 "/></g></g></g><g fill="#242424" fill-opacity="1"><g transform="translate(189.537573, 180.434064)"><g><path d="M 2.421875 -10.515625 C 2.421875 -12.484375 2.78125 -14.1875 3.5 -15.625 C 4.21875 -17.0625 5.21875 -18.25 6.5 -19.1875 C 7.78125 -20.132812 9.304688 -20.84375 11.078125 -21.3125 C 12.859375 -21.789062 14.828125 -22.03125 16.984375 -22.03125 C 18.867188 -22.03125 20.484375 -21.894531 21.828125 -21.625 C 23.171875 -21.351562 24.492188 -20.992188 25.796875 -20.546875 L 25.796875 -21.15625 C 25.796875 -25.5625 23.21875 -27.765625 18.0625 -27.765625 C 16.625 -27.765625 15.304688 -27.71875 14.109375 -27.625 C 12.921875 -27.53125 11.878906 -27.238281 10.984375 -26.75 C 10.617188 -26.570312 10.125 -26.484375 9.5 -26.484375 C 8.332031 -26.484375 7.332031 -26.882812 6.5 -27.6875 C 5.664062 -28.5 5.25 -29.488281 5.25 -30.65625 C 5.25 -31.550781 5.507812 -32.359375 6.03125 -33.078125 C 6.550781 -33.796875 7.210938 -34.3125 8.015625 -34.625 C 9.628906 -35.257812 11.347656 -35.734375 13.171875 -36.046875 C 14.992188 -36.359375 17.113281 -36.515625 19.53125 -36.515625 C 24.832031 -36.515625 28.84375 -35.242188 31.5625 -32.703125 C 34.28125 -30.171875 35.640625 -26.253906 35.640625 -20.953125 L 35.640625 -4.515625 C 35.640625 -3.117188 35.15625 -1.945312 34.1875 -1 C 33.226562 -0.0625 32.050781 0.40625 30.65625 0.40625 C 29.175781 0.40625 27.984375 -0.03125 27.078125 -0.90625 C 26.179688 -1.78125 25.734375 -2.757812 25.734375 -3.84375 L 25.734375 -3.90625 C 24.472656 -2.507812 22.976562 -1.394531 21.25 -0.5625 C 19.519531 0.257812 17.378906 0.671875 14.828125 0.671875 C 13.117188 0.671875 11.507812 0.4375 10 -0.03125 C 8.5 -0.5 7.1875 -1.207031 6.0625 -2.15625 C 4.9375 -3.101562 4.046875 -4.257812 3.390625 -5.625 C 2.742188 -7 2.421875 -8.582031 2.421875 -10.375 Z M 12.328125 -10.921875 L 12.328125 -10.78125 C 12.328125 -9.382812 12.84375 -8.304688 13.875 -7.546875 C 14.90625 -6.785156 16.253906 -6.40625 17.921875 -6.40625 C 20.347656 -6.40625 22.289062 -6.988281 23.75 -8.15625 C 25.207031 -9.320312 25.9375 -10.847656 25.9375 -12.734375 L 25.9375 -14.546875 C 25.039062 -14.953125 24.039062 -15.28125 22.9375 -15.53125 C 21.84375 -15.78125 20.664062 -15.90625 19.40625 -15.90625 C 17.207031 -15.90625 15.476562 -15.476562 14.21875 -14.625 C 12.957031 -13.769531 12.328125 -12.535156 12.328125 -10.921875 Z M 12.328125 -10.921875 "/></g></g></g><g fill="#242424" fill-opacity="1"><g transform="translate(225.378038, 180.434064)"><g><path d="M 9.703125 -36.515625 C 11.140625 -36.515625 12.351562 -36.019531 13.34375 -35.03125 C 14.332031 -34.039062 14.828125 -32.828125 14.828125 -31.390625 L 14.828125 -31 C 15.992188 -32.519531 17.40625 -33.863281 19.0625 -35.03125 C 20.726562 -36.195312 22.84375 -36.78125 25.40625 -36.78125 C 29.351562 -36.78125 32.378906 -35.601562 34.484375 -33.25 C 36.597656 -30.894531 37.65625 -27.601562 37.65625 -23.375 L 37.65625 -4.71875 C 37.65625 -3.28125 37.160156 -2.066406 36.171875 -1.078125 C 35.191406 -0.0859375 33.984375 0.40625 32.546875 0.40625 C 31.109375 0.40625 29.894531 -0.0859375 28.90625 -1.078125 C 27.914062 -2.066406 27.421875 -3.28125 27.421875 -4.71875 L 27.421875 -20.140625 C 27.421875 -25.035156 25.351562 -27.484375 21.21875 -27.484375 C 19.195312 -27.484375 17.625 -26.863281 16.5 -25.625 C 15.382812 -24.394531 14.828125 -22.566406 14.828125 -20.140625 L 14.828125 -4.71875 C 14.828125 -3.28125 14.332031 -2.066406 13.34375 -1.078125 C 12.351562 -0.0859375 11.140625 0.40625 9.703125 0.40625 C 8.265625 0.40625 7.050781 -0.0859375 6.0625 -1.078125 C 5.070312 -2.066406 4.578125 -3.28125 4.578125 -4.71875 L 4.578125 -31.390625 C 4.578125 -32.828125 5.070312 -34.039062 6.0625 -35.03125 C 7.050781 -36.019531 8.265625 -36.515625 9.703125 -36.515625 Z M 9.703125 -36.515625 "/></g></g></g><g fill="#242424" fill-opacity="1"><g transform="translate(263.307, 180.434064)"><g><path d="M 2.96875 -18.125 C 2.96875 -21.132812 3.425781 -23.796875 4.34375 -26.109375 C 5.269531 -28.421875 6.484375 -30.375 7.984375 -31.96875 C 9.484375 -33.5625 11.222656 -34.757812 13.203125 -35.5625 C 15.179688 -36.375 17.25 -36.78125 19.40625 -36.78125 C 22.144531 -36.78125 24.398438 -36.238281 26.171875 -35.15625 C 27.953125 -34.082031 29.445312 -32.828125 30.65625 -31.390625 L 30.65625 -44.46875 C 30.65625 -45.90625 31.148438 -47.117188 32.140625 -48.109375 C 33.128906 -49.097656 34.34375 -49.59375 35.78125 -49.59375 C 37.21875 -49.59375 38.425781 -49.097656 39.40625 -48.109375 C 40.394531 -47.117188 40.890625 -45.90625 40.890625 -44.46875 L 40.890625 -4.71875 C 40.890625 -3.28125 40.394531 -2.066406 39.40625 -1.078125 C 38.425781 -0.0859375 37.21875 0.40625 35.78125 0.40625 C 34.34375 0.40625 33.128906 -0.0859375 32.140625 -1.078125 C 31.148438 -2.066406 30.65625 -3.28125 30.65625 -4.71875 L 30.65625 -5.1875 C 29.394531 -3.476562 27.878906 -2.070312 26.109375 -0.96875 C 24.335938 0.125 22.101562 0.671875 19.40625 0.671875 C 17.289062 0.671875 15.242188 0.269531 13.265625 -0.53125 C 11.296875 -1.34375 9.546875 -2.546875 8.015625 -4.140625 C 6.492188 -5.734375 5.269531 -7.6875 4.34375 -10 C 3.425781 -12.3125 2.96875 -14.972656 2.96875 -17.984375 Z M 13.203125 -18.125 L 13.203125 -17.984375 C 13.203125 -16.503906 13.4375 -15.144531 13.90625 -13.90625 C 14.382812 -12.675781 15.023438 -11.625 15.828125 -10.75 C 16.640625 -9.875 17.570312 -9.195312 18.625 -8.71875 C 19.6875 -8.25 20.820312 -8.015625 22.03125 -8.015625 C 23.238281 -8.015625 24.367188 -8.25 25.421875 -8.71875 C 26.484375 -9.195312 27.40625 -9.875 28.1875 -10.75 C 28.976562 -11.625 29.609375 -12.675781 30.078125 -13.90625 C 30.554688 -15.144531 30.796875 -16.503906 30.796875 -17.984375 L 30.796875 -18.125 C 30.796875 -19.601562 30.554688 -20.957031 30.078125 -22.1875 C 29.609375 -23.425781 28.976562 -24.484375 28.1875 -25.359375 C 27.40625 -26.242188 26.484375 -26.921875 25.421875 -27.390625 C 24.367188 -27.859375 23.238281 -28.09375 22.03125 -28.09375 C 20.820312 -28.09375 19.6875 -27.859375 18.625 -27.390625 C 17.570312 -26.921875 16.640625 -26.242188 15.828125 -25.359375 C 15.023438 -24.484375 14.382812 -23.441406 13.90625 -22.234375 C 13.4375 -21.023438 13.203125 -19.65625 13.203125 -18.125 Z M 13.203125 -18.125 "/></g></g></g><g fill="#242424" fill-opacity="1"><g transform="translate(304.739255, 180.434064)"><g><path d="M 2.421875 -10.515625 C 2.421875 -12.484375 2.78125 -14.1875 3.5 -15.625 C 4.21875 -17.0625 5.21875 -18.25 6.5 -19.1875 C 7.78125 -20.132812 9.304688 -20.84375 11.078125 -21.3125 C 12.859375 -21.789062 14.828125 -22.03125 16.984375 -22.03125 C 18.867188 -22.03125 20.484375 -21.894531 21.828125 -21.625 C 23.171875 -21.351562 24.492188 -20.992188 25.796875 -20.546875 L 25.796875 -21.15625 C 25.796875 -25.5625 23.21875 -27.765625 18.0625 -27.765625 C 16.625 -27.765625 15.304688 -27.71875 14.109375 -27.625 C 12.921875 -27.53125 11.878906 -27.238281 10.984375 -26.75 C 10.617188 -26.570312 10.125 -26.484375 9.5 -26.484375 C 8.332031 -26.484375 7.332031 -26.882812 6.5 -27.6875 C 5.664062 -28.5 5.25 -29.488281 5.25 -30.65625 C 5.25 -31.550781 5.507812 -32.359375 6.03125 -33.078125 C 6.550781 -33.796875 7.210938 -34.3125 8.015625 -34.625 C 9.628906 -35.257812 11.347656 -35.734375 13.171875 -36.046875 C 14.992188 -36.359375 17.113281 -36.515625 19.53125 -36.515625 C 24.832031 -36.515625 28.84375 -35.242188 31.5625 -32.703125 C 34.28125 -30.171875 35.640625 -26.253906 35.640625 -20.953125 L 35.640625 -4.515625 C 35.640625 -3.117188 35.15625 -1.945312 34.1875 -1 C 33.226562 -0.0625 32.050781 0.40625 30.65625 0.40625 C 29.175781 0.40625 27.984375 -0.03125 27.078125 -0.90625 C 26.179688 -1.78125 25.734375 -2.757812 25.734375 -3.84375 L 25.734375 -3.90625 C 24.472656 -2.507812 22.976562 -1.394531 21.25 -0.5625 C 19.519531 0.257812 17.378906 0.671875 14.828125 0.671875 C 13.117188 0.671875 11.507812 0.4375 10 -0.03125 C 8.5 -0.5 7.1875 -1.207031 6.0625 -2.15625 C 4.9375 -3.101562 4.046875 -4.257812 3.390625 -5.625 C 2.742188 -7 2.421875 -8.582031 2.421875 -10.375 Z M 12.328125 -10.921875 L 12.328125 -10.78125 C 12.328125 -9.382812 12.84375 -8.304688 13.875 -7.546875 C 14.90625 -6.785156 16.253906 -6.40625 17.921875 -6.40625 C 20.347656 -6.40625 22.289062 -6.988281 23.75 -8.15625 C 25.207031 -9.320312 25.9375 -10.847656 25.9375 -12.734375 L 25.9375 -14.546875 C 25.039062 -14.953125 24.039062 -15.28125 22.9375 -15.53125 C 21.84375 -15.78125 20.664062 -15.90625 19.40625 -15.90625 C 17.207031 -15.90625 15.476562 -15.476562 14.21875 -14.625 C 12.957031 -13.769531 12.328125 -12.535156 12.328125 -10.921875 Z M 12.328125 -10.921875 "/></g></g></g><g fill="#242424" fill-opacity="1"><g transform="translate(153.024288, 218.952247)"><g><path d="M 1.765625 -3.890625 L 11.375 -25.59375 C 11.71875 -26.351562 12.179688 -26.941406 12.765625 -27.359375 C 13.359375 -27.785156 14.078125 -28 14.921875 -28 L 15.28125 -28 C 16.113281 -28 16.816406 -27.785156 17.390625 -27.359375 C 17.972656 -26.941406 18.4375 -26.351562 18.78125 -25.59375 L 28.390625 -3.890625 C 28.597656 -3.316406 28.703125 -2.910156 28.703125 -2.671875 C 28.703125 -1.859375 28.425781 -1.171875 27.875 -0.609375 C 27.320312 -0.046875 26.640625 0.234375 25.828125 0.234375 C 25.117188 0.234375 24.523438 0.046875 24.046875 -0.328125 C 23.578125 -0.710938 23.203125 -1.21875 22.921875 -1.84375 L 21.0625 -6.1875 L 8.9375 -6.1875 L 7.015625 -1.65625 C 6.742188 -1.050781 6.363281 -0.582031 5.875 -0.25 C 5.394531 0.0703125 4.84375 0.234375 4.21875 0.234375 C 3.425781 0.234375 2.757812 -0.0390625 2.21875 -0.59375 C 1.6875 -1.144531 1.421875 -1.8125 1.421875 -2.59375 C 1.421875 -2.800781 1.453125 -3.015625 1.515625 -3.234375 C 1.578125 -3.460938 1.660156 -3.679688 1.765625 -3.890625 Z M 11.1875 -11.53125 L 18.828125 -11.53125 L 15 -20.625 Z M 11.1875 -11.53125 "/></g></g></g><g fill="#242424" fill-opacity="1"><g transform="translate(183.185545, 218.952247)"><g><path d="M 12.71875 -21.5 C 14.320312 -21.5 15.695312 -21.296875 16.84375 -20.890625 C 18 -20.484375 19.023438 -19.898438 19.921875 -19.140625 C 20.128906 -18.984375 20.335938 -18.734375 20.546875 -18.390625 C 20.765625 -18.046875 20.875 -17.613281 20.875 -17.09375 C 20.875 -16.332031 20.609375 -15.691406 20.078125 -15.171875 C 19.554688 -14.660156 18.914062 -14.40625 18.15625 -14.40625 C 17.757812 -14.40625 17.414062 -14.472656 17.125 -14.609375 C 16.832031 -14.742188 16.597656 -14.875 16.421875 -15 C 15.890625 -15.414062 15.328125 -15.742188 14.734375 -15.984375 C 14.148438 -16.222656 13.460938 -16.34375 12.671875 -16.34375 C 11.941406 -16.34375 11.257812 -16.191406 10.625 -15.890625 C 10 -15.585938 9.457031 -15.171875 9 -14.640625 C 8.539062 -14.117188 8.1875 -13.507812 7.9375 -12.8125 C 7.6875 -12.113281 7.5625 -11.375 7.5625 -10.59375 L 7.5625 -10.515625 C 7.5625 -9.703125 7.6875 -8.941406 7.9375 -8.234375 C 8.1875 -7.523438 8.546875 -6.90625 9.015625 -6.375 C 9.484375 -5.851562 10.046875 -5.441406 10.703125 -5.140625 C 11.359375 -4.835938 12.097656 -4.6875 12.921875 -4.6875 C 13.703125 -4.6875 14.414062 -4.8125 15.0625 -5.0625 C 15.707031 -5.3125 16.304688 -5.671875 16.859375 -6.140625 C 17.015625 -6.273438 17.226562 -6.398438 17.5 -6.515625 C 17.78125 -6.628906 18.101562 -6.6875 18.46875 -6.6875 C 19.175781 -6.6875 19.769531 -6.4375 20.25 -5.9375 C 20.738281 -5.445312 20.984375 -4.847656 20.984375 -4.140625 C 20.984375 -3.742188 20.90625 -3.382812 20.75 -3.0625 C 20.59375 -2.75 20.382812 -2.476562 20.125 -2.25 C 19.226562 -1.4375 18.1875 -0.78125 17 -0.28125 C 15.820312 0.21875 14.367188 0.46875 12.640625 0.46875 C 11.066406 0.46875 9.601562 0.179688 8.25 -0.390625 C 6.894531 -0.972656 5.734375 -1.753906 4.765625 -2.734375 C 3.796875 -3.722656 3.035156 -4.878906 2.484375 -6.203125 C 1.929688 -7.523438 1.65625 -8.9375 1.65625 -10.4375 L 1.65625 -10.515625 C 1.65625 -12.003906 1.929688 -13.421875 2.484375 -14.765625 C 3.035156 -16.109375 3.796875 -17.273438 4.765625 -18.265625 C 5.734375 -19.265625 6.898438 -20.050781 8.265625 -20.625 C 9.628906 -21.207031 11.113281 -21.5 12.71875 -21.5 Z M 12.71875 -21.5 "/></g></g></g><g fill="#242424" fill-opacity="1"><g transform="translate(205.668675, 218.952247)"><g><path d="M 1.421875 -6.140625 C 1.421875 -7.296875 1.628906 -8.289062 2.046875 -9.125 C 2.460938 -9.96875 3.046875 -10.664062 3.796875 -11.21875 C 4.546875 -11.769531 5.4375 -12.179688 6.46875 -12.453125 C 7.507812 -12.734375 8.660156 -12.875 9.921875 -12.875 C 11.023438 -12.875 11.96875 -12.796875 12.75 -12.640625 C 13.539062 -12.484375 14.316406 -12.273438 15.078125 -12.015625 L 15.078125 -12.359375 C 15.078125 -14.929688 13.566406 -16.21875 10.546875 -16.21875 C 9.710938 -16.21875 8.945312 -16.191406 8.25 -16.140625 C 7.550781 -16.085938 6.941406 -15.914062 6.421875 -15.625 C 6.210938 -15.519531 5.921875 -15.46875 5.546875 -15.46875 C 4.867188 -15.46875 4.285156 -15.703125 3.796875 -16.171875 C 3.316406 -16.648438 3.078125 -17.234375 3.078125 -17.921875 C 3.078125 -18.441406 3.226562 -18.910156 3.53125 -19.328125 C 3.832031 -19.753906 4.21875 -20.054688 4.6875 -20.234375 C 5.632812 -20.609375 6.640625 -20.882812 7.703125 -21.0625 C 8.765625 -21.25 10.003906 -21.34375 11.421875 -21.34375 C 14.515625 -21.34375 16.851562 -20.597656 18.4375 -19.109375 C 20.03125 -17.628906 20.828125 -15.34375 20.828125 -12.25 L 20.828125 -2.640625 C 20.828125 -1.828125 20.546875 -1.144531 19.984375 -0.59375 C 19.421875 -0.0390625 18.734375 0.234375 17.921875 0.234375 C 17.046875 0.234375 16.347656 -0.0195312 15.828125 -0.53125 C 15.304688 -1.039062 15.046875 -1.613281 15.046875 -2.25 L 15.046875 -2.28125 C 14.304688 -1.46875 13.429688 -0.816406 12.421875 -0.328125 C 11.410156 0.148438 10.15625 0.390625 8.65625 0.390625 C 7.664062 0.390625 6.726562 0.253906 5.84375 -0.015625 C 4.96875 -0.296875 4.203125 -0.710938 3.546875 -1.265625 C 2.890625 -1.816406 2.367188 -2.488281 1.984375 -3.28125 C 1.609375 -4.082031 1.421875 -5.007812 1.421875 -6.0625 Z M 7.203125 -6.375 L 7.203125 -6.296875 C 7.203125 -5.484375 7.503906 -4.851562 8.109375 -4.40625 C 8.710938 -3.957031 9.5 -3.734375 10.46875 -3.734375 C 11.882812 -3.734375 13.019531 -4.070312 13.875 -4.75 C 14.726562 -5.4375 15.15625 -6.332031 15.15625 -7.4375 L 15.15625 -8.5 C 14.632812 -8.738281 14.050781 -8.929688 13.40625 -9.078125 C 12.757812 -9.222656 12.070312 -9.296875 11.34375 -9.296875 C 10.050781 -9.296875 9.035156 -9.046875 8.296875 -8.546875 C 7.566406 -8.046875 7.203125 -7.320312 7.203125 -6.375 Z M 7.203125 -6.375 "/></g></g></g><g fill="#242424" fill-opacity="1"><g transform="translate(228.978675, 218.952247)"><g><path d="M 1.734375 -10.59375 C 1.734375 -12.351562 2 -13.90625 2.53125 -15.25 C 3.070312 -16.601562 3.78125 -17.742188 4.65625 -18.671875 C 5.539062 -19.609375 6.5625 -20.3125 7.71875 -20.78125 C 8.875 -21.257812 10.082031 -21.5 11.34375 -21.5 C 12.9375 -21.5 14.253906 -21.179688 15.296875 -20.546875 C 16.335938 -19.921875 17.210938 -19.1875 17.921875 -18.34375 L 17.921875 -25.984375 C 17.921875 -26.828125 18.207031 -27.535156 18.78125 -28.109375 C 19.351562 -28.691406 20.0625 -28.984375 20.90625 -28.984375 C 21.75 -28.984375 22.457031 -28.691406 23.03125 -28.109375 C 23.613281 -27.535156 23.90625 -26.828125 23.90625 -25.984375 L 23.90625 -2.75 C 23.90625 -1.914062 23.613281 -1.207031 23.03125 -0.625 C 22.457031 -0.0507812 21.75 0.234375 20.90625 0.234375 C 20.0625 0.234375 19.351562 -0.0507812 18.78125 -0.625 C 18.207031 -1.207031 17.921875 -1.914062 17.921875 -2.75 L 17.921875 -3.03125 C 17.179688 -2.03125 16.289062 -1.207031 15.25 -0.5625 C 14.21875 0.0703125 12.914062 0.390625 11.34375 0.390625 C 10.101562 0.390625 8.90625 0.15625 7.75 -0.3125 C 6.601562 -0.789062 5.582031 -1.492188 4.6875 -2.421875 C 3.789062 -3.347656 3.070312 -4.488281 2.53125 -5.84375 C 2 -7.195312 1.734375 -8.753906 1.734375 -10.515625 Z M 7.71875 -10.59375 L 7.71875 -10.515625 C 7.71875 -9.648438 7.851562 -8.851562 8.125 -8.125 C 8.40625 -7.40625 8.78125 -6.789062 9.25 -6.28125 C 9.726562 -5.769531 10.273438 -5.375 10.890625 -5.09375 C 11.503906 -4.820312 12.164062 -4.6875 12.875 -4.6875 C 13.582031 -4.6875 14.242188 -4.820312 14.859375 -5.09375 C 15.484375 -5.375 16.023438 -5.769531 16.484375 -6.28125 C 16.941406 -6.789062 17.304688 -7.40625 17.578125 -8.125 C 17.859375 -8.851562 18 -9.648438 18 -10.515625 L 18 -10.59375 C 18 -11.457031 17.859375 -12.25 17.578125 -12.96875 C 17.304688 -13.695312 16.941406 -14.316406 16.484375 -14.828125 C 16.023438 -15.335938 15.484375 -15.726562 14.859375 -16 C 14.242188 -16.28125 13.582031 -16.421875 12.875 -16.421875 C 12.164062 -16.421875 11.503906 -16.28125 10.890625 -16 C 10.273438 -15.726562 9.726562 -15.335938 9.25 -14.828125 C 8.78125 -14.316406 8.40625 -13.707031 8.125 -13 C 7.851562 -12.289062 7.71875 -11.488281 7.71875 -10.59375 Z M 7.71875 -10.59375 "/></g></g></g><g fill="#242424" fill-opacity="1"><g transform="translate(255.556799, 218.952247)"><g><path d="M 1.65625 -10.515625 C 1.65625 -12.003906 1.910156 -13.421875 2.421875 -14.765625 C 2.929688 -16.109375 3.644531 -17.273438 4.5625 -18.265625 C 5.488281 -19.265625 6.59375 -20.050781 7.875 -20.625 C 9.15625 -21.207031 10.5625 -21.5 12.09375 -21.5 C 13.875 -21.5 15.398438 -21.175781 16.671875 -20.53125 C 17.941406 -19.882812 18.988281 -19.0625 19.8125 -18.0625 C 20.644531 -17.070312 21.257812 -15.976562 21.65625 -14.78125 C 22.050781 -13.59375 22.25 -12.445312 22.25 -11.34375 C 22.25 -10.476562 21.976562 -9.78125 21.4375 -9.25 C 20.894531 -8.726562 20.234375 -8.46875 19.453125 -8.46875 L 7.59375 -8.46875 C 7.882812 -7.101562 8.484375 -6.070312 9.390625 -5.375 C 10.296875 -4.675781 11.414062 -4.328125 12.75 -4.328125 C 13.59375 -4.328125 14.363281 -4.453125 15.0625 -4.703125 C 15.757812 -4.953125 16.410156 -5.300781 17.015625 -5.75 C 17.222656 -5.90625 17.4375 -6.019531 17.65625 -6.09375 C 17.882812 -6.175781 18.15625 -6.21875 18.46875 -6.21875 C 19.144531 -6.21875 19.703125 -5.992188 20.140625 -5.546875 C 20.578125 -5.097656 20.796875 -4.535156 20.796875 -3.859375 C 20.796875 -3.460938 20.710938 -3.117188 20.546875 -2.828125 C 20.390625 -2.546875 20.207031 -2.300781 20 -2.09375 C 19.082031 -1.300781 18.023438 -0.675781 16.828125 -0.21875 C 15.640625 0.238281 14.253906 0.46875 12.671875 0.46875 C 11.097656 0.46875 9.632812 0.207031 8.28125 -0.3125 C 6.9375 -0.84375 5.769531 -1.59375 4.78125 -2.5625 C 3.800781 -3.53125 3.035156 -4.679688 2.484375 -6.015625 C 1.929688 -7.359375 1.65625 -8.832031 1.65625 -10.4375 Z M 7.515625 -12.203125 L 16.53125 -12.203125 C 16.351562 -13.546875 15.882812 -14.628906 15.125 -15.453125 C 14.363281 -16.273438 13.351562 -16.6875 12.09375 -16.6875 C 10.832031 -16.6875 9.8125 -16.28125 9.03125 -15.46875 C 8.257812 -14.65625 7.753906 -13.566406 7.515625 -12.203125 Z M 7.515625 -12.203125 "/></g></g></g><g fill="#242424" fill-opacity="1"><g transform="translate(279.693679, 218.952247)"><g><path d="M 2.671875 -2.75 L 2.671875 -18.34375 C 2.671875 -19.1875 2.957031 -19.894531 3.53125 -20.46875 C 4.113281 -21.050781 4.828125 -21.34375 5.671875 -21.34375 C 6.515625 -21.34375 7.222656 -21.050781 7.796875 -20.46875 C 8.367188 -19.894531 8.65625 -19.1875 8.65625 -18.34375 L 8.65625 -18.109375 C 9 -18.554688 9.375 -18.984375 9.78125 -19.390625 C 10.1875 -19.796875 10.640625 -20.15625 11.140625 -20.46875 C 11.640625 -20.789062 12.195312 -21.039062 12.8125 -21.21875 C 13.425781 -21.40625 14.117188 -21.5 14.890625 -21.5 C 17.722656 -21.5 19.703125 -20.382812 20.828125 -18.15625 C 21.742188 -19.257812 22.765625 -20.09375 23.890625 -20.65625 C 25.023438 -21.21875 26.316406 -21.5 27.765625 -21.5 C 29.992188 -21.5 31.738281 -20.84375 33 -19.53125 C 34.257812 -18.21875 34.890625 -16.285156 34.890625 -13.734375 L 34.890625 -2.75 C 34.890625 -1.914062 34.597656 -1.207031 34.015625 -0.625 C 33.441406 -0.0507812 32.734375 0.234375 31.890625 0.234375 C 31.054688 0.234375 30.347656 -0.0507812 29.765625 -0.625 C 29.191406 -1.207031 28.90625 -1.914062 28.90625 -2.75 L 28.90625 -11.765625 C 28.90625 -13.191406 28.601562 -14.265625 28 -14.984375 C 27.394531 -15.703125 26.523438 -16.0625 25.390625 -16.0625 C 24.265625 -16.0625 23.378906 -15.703125 22.734375 -14.984375 C 22.097656 -14.265625 21.78125 -13.191406 21.78125 -11.765625 L 21.78125 -2.75 C 21.78125 -1.914062 21.488281 -1.207031 20.90625 -0.625 C 20.332031 -0.0507812 19.625 0.234375 18.78125 0.234375 C 17.9375 0.234375 17.226562 -0.0507812 16.65625 -0.625 C 16.082031 -1.207031 15.796875 -1.914062 15.796875 -2.75 L 15.796875 -11.765625 C 15.796875 -13.191406 15.492188 -14.265625 14.890625 -14.984375 C 14.285156 -15.703125 13.414062 -16.0625 12.28125 -16.0625 C 11.15625 -16.0625 10.269531 -15.703125 9.625 -14.984375 C 8.976562 -14.265625 8.65625 -13.191406 8.65625 -11.765625 L 8.65625 -2.75 C 8.65625 -1.914062 8.367188 -1.207031 7.796875 -0.625 C 7.222656 -0.0507812 6.515625 0.234375 5.671875 0.234375 C 4.828125 0.234375 4.113281 -0.0507812 3.53125 -0.625 C 2.957031 -1.207031 2.671875 -1.914062 2.671875 -2.75 Z M 2.671875 -2.75 "/></g></g></g><g fill="#242424" fill-opacity="1"><g transform="translate(317.099938, 218.952247)"><g><path d="M 1.296875 -18.46875 C 1.296875 -19.3125 1.578125 -20 2.140625 -20.53125 C 2.710938 -21.070312 3.414062 -21.34375 4.25 -21.34375 C 5.007812 -21.34375 5.613281 -21.144531 6.0625 -20.75 C 6.507812 -20.351562 6.863281 -19.800781 7.125 -19.09375 L 11.6875 -6.8125 L 16.109375 -19.0625 C 16.335938 -19.6875 16.679688 -20.222656 17.140625 -20.671875 C 17.609375 -21.117188 18.222656 -21.34375 18.984375 -21.34375 C 19.742188 -21.34375 20.40625 -21.078125 20.96875 -20.546875 C 21.53125 -20.023438 21.8125 -19.367188 21.8125 -18.578125 C 21.8125 -18.347656 21.773438 -18.085938 21.703125 -17.796875 C 21.640625 -17.503906 21.582031 -17.296875 21.53125 -17.171875 L 14.171875 0.515625 C 13.722656 1.585938 13.269531 2.5 12.8125 3.25 C 12.351562 4 11.847656 4.609375 11.296875 5.078125 C 10.742188 5.546875 10.125 5.882812 9.4375 6.09375 C 8.757812 6.3125 7.960938 6.421875 7.046875 6.421875 C 6.546875 6.421875 6 6.378906 5.40625 6.296875 C 4.820312 6.222656 4.265625 6.078125 3.734375 5.859375 C 3.210938 5.648438 2.773438 5.34375 2.421875 4.9375 C 2.066406 4.53125 1.890625 4.015625 1.890625 3.390625 C 1.890625 2.648438 2.128906 2.054688 2.609375 1.609375 C 3.097656 1.160156 3.644531 0.9375 4.25 0.9375 C 4.488281 0.9375 4.679688 0.953125 4.828125 0.984375 C 4.972656 1.015625 5.109375 1.054688 5.234375 1.109375 C 5.492188 1.179688 5.71875 1.238281 5.90625 1.28125 C 6.09375 1.320312 6.289062 1.34375 6.5 1.34375 C 7.019531 1.34375 7.429688 1.257812 7.734375 1.09375 C 8.035156 0.9375 8.332031 0.597656 8.625 0.078125 L 8.8125 -0.390625 L 1.609375 -17.09375 C 1.535156 -17.300781 1.460938 -17.53125 1.390625 -17.78125 C 1.328125 -18.03125 1.296875 -18.257812 1.296875 -18.46875 Z M 1.296875 -18.46875 "/></g></g></g></svg>